<svg width="80" height="80" viewBox="0 0 80 80" fill="none" xmlns="http://www.w3.org/2000/svg">
<g id="emojione-monotone:shopping-cart">
<path id="Vector" d="M76.3288 2.5H72.8125V3.62C67.9175 4.715 67.2138 9.25875 66.9375 10.995C66.8063 11.8162 66.54 13.4225 66.21 15.39H4.98502C2.56252 15.39 2.29127 17.6538 2.60752 18.9062L9.79002 50.615C10.105 51.8675 11.4313 52.89 12.7313 52.89H66.4113C67.7038 52.89 68.7575 53.9412 68.7575 55.2337C68.7575 56.5262 67.7038 57.5775 66.4113 57.5775H7.81877C7.19717 57.5775 6.60103 57.8244 6.16149 58.264C5.72195 58.7035 5.47502 59.2996 5.47502 59.9212C5.47502 60.5429 5.72195 61.139 6.16149 61.5785C6.60103 62.0181 7.19717 62.265 7.81877 62.265H10.8563C9.38965 63.0747 8.16701 64.2629 7.31574 65.7058C6.46447 67.1487 6.01573 68.7935 6.01627 70.4688H8.36002C8.36002 74.35 11.51 77.5 15.3913 77.5C19.2725 77.5 22.4225 74.35 22.4225 70.4688H24.7663C24.7666 68.7934 24.3176 67.1486 23.4661 65.7057C22.6146 64.2628 21.3918 63.0746 19.925 62.265H53.0425C51.5757 63.0746 50.3529 64.2628 49.5014 65.7057C48.65 67.1486 48.201 68.7934 48.2013 70.4688H50.545C50.5798 72.3109 51.3359 74.0659 52.651 75.3564C53.9661 76.6469 55.735 77.3699 57.5775 77.3699C59.42 77.3699 61.189 76.6469 62.504 75.3564C63.8191 74.0659 64.5753 72.3109 64.61 70.4688H66.9538C66.9539 68.7935 66.505 67.1489 65.6538 65.7061C64.8026 64.2633 63.5801 63.075 62.1138 62.265H66.4138C68.2783 62.264 70.0661 61.5229 71.3845 60.2045C72.7029 58.8861 73.444 57.0982 73.445 55.2337C73.4449 54.3102 73.2628 53.3958 72.9092 52.5426C72.5556 51.6895 72.0375 50.9143 71.3844 50.2614C70.7312 49.6085 69.9559 49.0906 69.1026 48.7373C68.2493 48.3841 67.3348 48.2023 66.4113 48.2025H65.54L68.5375 29.565C69.3725 24.6425 71.1725 14.0087 71.595 11.3637C71.8075 10.0275 72.0138 9.08875 72.8125 8.5625V9.53H76.3288C76.6389 9.52901 76.936 9.40547 77.1554 9.1863C77.3748 8.96713 77.4987 8.67011 77.5 8.36V3.6725C77.4994 3.36195 77.3758 3.06429 77.1563 2.84459C76.9368 2.62488 76.6393 2.50099 76.3288 2.5ZM15.3913 73.985C14.459 73.984 13.5652 73.6132 12.906 72.954C12.2468 72.2948 11.876 71.401 11.875 70.4688H18.9063C18.9053 71.4008 18.5347 72.2944 17.8757 72.9536C17.2168 73.6127 16.3233 73.9837 15.3913 73.985ZM57.5788 73.985C56.6463 73.9843 55.7522 73.6137 55.0927 72.9545C54.4332 72.2952 54.0623 71.4012 54.0613 70.4688H61.095C61.0934 71.4008 60.7224 72.2942 60.0633 72.9533C59.4042 73.6124 58.5108 73.9833 57.5788 73.985ZM54.695 21.2425C54.7363 20.9248 54.8902 20.6325 55.1288 20.4187C55.3673 20.2049 55.6747 20.0838 55.995 20.0775H63.4163C64.0613 20.0775 64.51 20.5975 64.4088 21.2362L63.6738 25.95C63.5763 26.5875 62.965 27.1087 62.3188 27.1087H55.24C55.091 27.1127 54.9428 27.0843 54.8058 27.0255C54.6687 26.9668 54.546 26.879 54.4461 26.7683C54.3462 26.6576 54.2715 26.5266 54.2271 26.3842C54.1827 26.2419 54.1696 26.0916 54.1888 25.9437L54.695 21.2425ZM53.4338 32.9613C53.4758 32.6439 53.6299 32.352 53.8683 32.1383C54.1067 31.9247 54.4137 31.8033 54.7338 31.7962H61.5875C62.2338 31.7962 62.6813 32.3162 62.5838 32.955L62.03 36.4975C61.9313 37.135 61.3213 37.6562 60.675 37.6562H54.1038C53.9548 37.6598 53.8069 37.6311 53.67 37.5722C53.5332 37.5133 53.4107 37.4255 53.3109 37.3149C53.2111 37.2043 53.1363 37.0735 53.0917 36.9313C53.0471 36.7892 53.0338 36.639 53.0525 36.4912L53.4338 32.9613ZM8.58252 25.9713L7.39502 21.215C7.24002 20.5875 7.64252 20.0775 8.28877 20.0775H17.1125C17.76 20.0775 18.3438 20.6012 18.4125 21.2425L18.9175 25.945C18.9363 26.0927 18.9229 26.2427 18.8784 26.3848C18.8339 26.5268 18.7592 26.6576 18.6596 26.7682C18.5599 26.8788 18.4375 26.9666 18.3008 27.0255C18.1642 27.0845 18.0164 27.1133 17.8675 27.11H10.0413C9.39627 27.11 8.73877 26.5963 8.58252 25.9713ZM12.6713 37.6562C12.0263 37.6562 11.3688 37.1437 11.2138 36.5187L10.3188 32.935C10.1625 32.3075 10.5625 31.7975 11.2088 31.7975H18.37C19.0163 31.7975 19.6013 32.3213 19.67 32.9625L20.05 36.4925C20.069 36.6402 20.0558 36.7903 20.0113 36.9325C19.9669 37.0746 19.8923 37.2055 19.7926 37.3161C19.6928 37.4268 19.5704 37.5145 19.4336 37.5735C19.2968 37.6324 19.1489 37.6611 19 37.6575H12.6713V37.6562ZM20.1325 48.2038H15.3013C14.6525 48.2038 13.9988 47.6912 13.8425 47.0662L12.9475 43.4825C12.7925 42.855 13.1925 42.345 13.84 42.345H19.5025C20.1488 42.345 20.7338 42.8687 20.805 43.51L21.1825 47.04C21.2015 47.1877 21.1883 47.3377 21.1439 47.4798C21.0994 47.6219 21.0248 47.7527 20.925 47.8632C20.8253 47.9738 20.7028 48.0614 20.566 48.1202C20.4292 48.179 20.2814 48.2075 20.1325 48.2038ZM34.4975 47.0312C34.4962 47.3422 34.3719 47.6401 34.1518 47.8598C33.9316 48.0794 33.6335 48.2031 33.3225 48.2038H27.2088C26.8887 48.1971 26.5816 48.0759 26.3433 47.8622C26.105 47.6484 25.9512 47.3562 25.91 47.0387L25.53 43.5088C25.5107 43.361 25.5235 43.2109 25.5677 43.0687C25.6119 42.9264 25.6864 42.7954 25.7861 42.6847C25.8857 42.574 26.0082 42.4862 26.145 42.4273C26.2819 42.3685 26.4299 42.34 26.5788 42.3438H33.3225C33.6337 42.3438 33.9322 42.4672 34.1525 42.687C34.3728 42.9068 34.4969 43.2051 34.4975 43.5163V47.0312ZM34.4975 36.485C34.4962 36.796 34.3719 37.0938 34.1518 37.3135C33.9316 37.5332 33.6335 37.6568 33.3225 37.6575H26.075C25.43 37.6575 24.8475 37.1338 24.775 36.4925L24.3975 32.9625C24.3784 32.8148 24.3914 32.6648 24.4357 32.5226C24.4799 32.3805 24.5545 32.2496 24.6541 32.1389C24.7537 32.0282 24.8761 31.9404 25.0128 31.8815C25.1495 31.8226 25.2974 31.7939 25.4463 31.7975H33.3225C33.6337 31.7975 33.9322 31.9209 34.1525 32.1408C34.3728 32.3606 34.4969 32.6588 34.4975 32.97V36.485ZM34.4975 25.9375C34.4962 26.2485 34.3719 26.5463 34.1518 26.766C33.9316 26.9857 33.6335 27.1093 33.3225 27.11H24.945C24.6247 27.1037 24.3173 26.9826 24.0788 26.7688C23.8402 26.555 23.6863 26.2627 23.645 25.945L23.14 21.2425C23.1211 21.0948 23.1343 20.9447 23.1787 20.8025C23.2231 20.6604 23.2978 20.5295 23.3975 20.4189C23.4972 20.3082 23.6196 20.2204 23.7564 20.1615C23.8932 20.1026 24.0411 20.0739 24.19 20.0775H33.3238C33.635 20.0775 33.9335 20.201 34.1537 20.4208C34.374 20.6406 34.4981 20.9388 34.4988 21.25V25.9375H34.4975ZM47.1963 47.0387C47.1548 47.3563 47.0008 47.6485 46.7623 47.8623C46.5237 48.076 46.2165 48.1972 45.8963 48.2038H40.3713C40.0604 48.2031 39.7624 48.0794 39.5425 47.8597C39.3225 47.64 39.1985 47.3421 39.1975 47.0312V43.515C39.1982 43.204 39.3221 42.906 39.5421 42.6862C39.7621 42.4664 40.0603 42.3428 40.3713 42.3425H46.5263C47.1713 42.3425 47.6463 42.8662 47.5763 43.5075L47.1963 47.0387ZM48.3288 36.4912C48.2873 36.8088 48.1333 37.101 47.8948 37.3148C47.6562 37.5285 47.349 37.6497 47.0288 37.6562H40.3713C40.0604 37.6556 39.7624 37.5319 39.5425 37.3122C39.3225 37.0925 39.1985 36.7946 39.1975 36.4837V32.9675C39.1982 32.6565 39.3221 32.3585 39.5421 32.1387C39.7621 31.9189 40.0603 31.7953 40.3713 31.795H47.6588C48.305 31.795 48.7788 32.3188 48.7075 32.96L48.3288 36.4912ZM49.4613 25.945C49.4198 26.2626 49.2658 26.5548 49.0273 26.7685C48.7887 26.9823 48.4815 27.1034 48.1613 27.11H40.3713C40.0604 27.1093 39.7624 26.9856 39.5425 26.7659C39.3225 26.5462 39.1985 26.2484 39.1975 25.9375V21.25C39.1982 20.939 39.3221 20.641 39.5421 20.4212C39.7621 20.2014 40.0603 20.0778 40.3713 20.0775H48.9175C49.5638 20.0775 50.0375 20.6012 49.9688 21.2425L49.4613 25.945ZM58.5013 48.2038V48.195L58.4913 48.2038H52.9713C52.935 48.2038 52.9038 48.1862 52.8675 48.1812C52.8613 48.1387 52.8613 48.0963 52.8538 48.0513L52.7988 48.1663C52.814 48.1703 52.8295 48.1736 52.845 48.1763C52.2688 48.11 51.8563 47.6338 51.9225 47.0387L52.3 43.5088C52.342 43.1914 52.4961 42.8995 52.7346 42.6858C52.973 42.4722 53.2799 42.3508 53.6 42.3438H59.945C60.5913 42.3438 61.0363 42.8637 60.9388 43.5025L60.385 47.045C60.2888 47.6825 59.6788 48.2038 59.0325 48.2038H58.5013Z" fill="#0F55BB"/>
</g>
</svg>
