<svg xmlns="http://www.w3.org/2000/svg" width="88" height="88" viewBox="0 0 88 88" fill="none">
  <path d="M83.9617 2.75H80.0938V3.982C74.7094 5.1865 73.9352 10.1846 73.6313 12.0945C73.487 12.9979 73.1941 14.7648 72.8311 16.929H5.48359C2.81884 16.929 2.52047 19.4191 2.86834 20.7969L10.7691 55.6765C11.1156 57.0543 12.5745 58.179 14.0045 58.179H73.0525C74.4742 58.179 75.6333 59.3354 75.6333 60.7571C75.6333 62.1789 74.4742 63.3353 73.0525 63.3353H8.60072C7.91696 63.3353 7.2612 63.6069 6.77771 64.0904C6.29422 64.5739 6.02259 65.2296 6.02259 65.9134C6.02259 66.5971 6.29422 67.2529 6.77771 67.7364C7.2612 68.2199 7.91696 68.4915 8.60072 68.4915H11.942C10.3287 69.3822 8.98378 70.6892 8.04738 72.2764C7.11099 73.8635 6.61737 75.6728 6.61797 77.5156H9.19609C9.19609 81.785 12.6611 85.25 16.9305 85.25C21.1998 85.25 24.6648 81.785 24.6648 77.5156H27.243C27.2433 75.6727 26.7494 73.8634 25.8128 72.2762C24.8761 70.6891 23.531 69.3821 21.9176 68.4915H58.3468C56.7334 69.3821 55.3883 70.6891 54.4517 72.2762C53.515 73.8634 53.0212 75.6727 53.0215 77.5156H55.5996C55.6378 79.542 56.4696 81.4725 57.9162 82.8921C59.3628 84.3116 61.3086 85.1069 63.3353 85.1069C65.3621 85.1069 67.3079 84.3116 68.7545 82.8921C70.2011 81.4725 71.0329 79.542 71.0711 77.5156H73.6492C73.6494 75.6729 73.1556 73.8638 72.2192 72.2767C71.2829 70.6896 69.9382 69.3825 68.3252 68.4915H73.0552C75.1062 68.4904 77.0728 67.6752 78.523 66.2249C79.9733 64.7747 80.7885 62.8081 80.7896 60.7571C80.7894 59.7413 80.5891 58.7354 80.2002 57.7969C79.8113 56.8584 79.2413 56.0057 78.5229 55.2875C77.8044 54.5693 76.9515 53.9997 76.0129 53.6111C75.0743 53.2225 74.0683 53.0226 73.0525 53.0228H72.0941L75.3913 32.5215C76.3099 27.1068 78.2898 15.4096 78.7546 12.5001C78.9883 11.0302 79.2152 9.99762 80.0938 9.41875V10.483H83.9617C84.3028 10.4819 84.6297 10.346 84.8711 10.1049C85.1124 9.86384 85.2486 9.53713 85.2501 9.196V4.03975C85.2494 3.69815 85.1134 3.37072 84.872 3.12905C84.6306 2.88737 84.3033 2.75109 83.9617 2.75ZM16.9305 81.3835C15.905 81.3824 14.9218 80.9745 14.1967 80.2494C13.4715 79.5243 13.0637 78.5411 13.0626 77.5156H20.797C20.7959 78.5409 20.3882 79.5238 19.6634 80.2489C18.9385 80.974 17.9557 81.382 16.9305 81.3835ZM63.3367 81.3835C62.311 81.3828 61.3275 80.9751 60.602 80.2499C59.8766 79.5247 59.4686 78.5414 59.4675 77.5156H67.2046C67.2028 78.5409 66.7947 79.5236 66.0697 80.2486C65.3447 80.9736 64.362 81.3817 63.3367 81.3835ZM60.1646 23.3667C60.21 23.0173 60.3793 22.6957 60.6417 22.4606C60.9041 22.2254 61.2423 22.0922 61.5946 22.0853H69.758C70.4675 22.0853 70.9611 22.6573 70.8497 23.3599L70.0412 28.545C69.934 29.2463 69.2616 29.8196 68.5507 29.8196H60.7641C60.6001 29.824 60.4372 29.7927 60.2864 29.7281C60.1357 29.6635 60.0007 29.5669 59.8908 29.4451C59.7809 29.3234 59.6987 29.1792 59.6499 29.0227C59.601 28.8661 59.5866 28.7008 59.6077 28.5381L60.1646 23.3667ZM58.7772 36.2574C58.8234 35.9083 58.993 35.5872 59.2552 35.3522C59.5175 35.1171 59.8551 34.9837 60.2072 34.9759H67.7463C68.4572 34.9759 68.9495 35.5479 68.8422 36.2505L68.2331 40.1473C68.1245 40.8485 67.4535 41.4219 66.7426 41.4219H59.5142C59.3504 41.4258 59.1876 41.3942 59.0371 41.3294C58.8866 41.2646 58.7518 41.1681 58.642 41.0464C58.5323 40.9247 58.45 40.7808 58.401 40.6244C58.3519 40.4681 58.3372 40.303 58.3578 40.1404L58.7772 36.2574ZM9.44084 28.5684L8.13459 23.3365C7.96409 22.6462 8.40684 22.0853 9.11772 22.0853H18.8238C19.5361 22.0853 20.1782 22.6614 20.2538 23.3667L20.8093 28.5395C20.83 28.702 20.8153 28.867 20.7663 29.0232C20.7173 29.1795 20.6352 29.3234 20.5256 29.445C20.416 29.5667 20.2814 29.6632 20.131 29.7281C19.9807 29.793 19.8181 29.8247 19.6543 29.821H11.0455C10.336 29.821 9.61272 29.2559 9.44084 28.5684ZM13.9385 41.4219C13.229 41.4219 12.5057 40.8581 12.3352 40.1706L11.3507 36.2285C11.1788 35.5382 11.6188 34.9772 12.3297 34.9772H20.2071C20.918 34.9772 21.5615 35.5534 21.6371 36.2588L22.0551 40.1418C22.0759 40.3043 22.0614 40.4693 22.0125 40.6257C21.9637 40.7821 21.8816 40.926 21.7719 41.0477C21.6622 41.1694 21.5275 41.266 21.377 41.3308C21.2266 41.3956 21.0639 41.4272 20.9001 41.4232H13.9385V41.4219ZM22.1458 53.0241H16.8315C16.1178 53.0241 15.3987 52.4604 15.2268 51.7729L14.2423 47.8307C14.0718 47.1405 14.5118 46.5795 15.2241 46.5795H21.4528C22.1637 46.5795 22.8072 47.1556 22.8856 47.861L23.3008 51.744C23.3217 51.9064 23.3072 52.0715 23.2583 52.2278C23.2094 52.3841 23.1273 52.528 23.0176 52.6496C22.9079 52.7712 22.7732 52.8676 22.6227 52.9322C22.4722 52.9969 22.3096 53.0282 22.1458 53.0241ZM37.9473 51.7344C37.9459 52.0765 37.8092 52.4041 37.567 52.6457C37.3249 52.8874 36.9969 53.0234 36.6548 53.0241H29.9297C29.5776 53.0169 29.2398 52.8835 28.9777 52.6484C28.7155 52.4132 28.5464 52.0919 28.5011 51.7426L28.0831 47.8596C28.0618 47.6972 28.0759 47.532 28.1246 47.3755C28.1732 47.219 28.2551 47.075 28.3648 46.9532C28.4744 46.8314 28.6091 46.7348 28.7596 46.6701C28.9102 46.6053 29.0729 46.574 29.2367 46.5781H36.6548C36.9972 46.5781 37.3255 46.7139 37.5678 46.9557C37.8101 47.1975 37.9466 47.5256 37.9473 47.8679V51.7344ZM37.9473 40.1335C37.9459 40.4756 37.8092 40.8032 37.567 41.0449C37.3249 41.2865 36.9969 41.4225 36.6548 41.4232H28.6826C27.9731 41.4232 27.3323 40.8471 27.2526 40.1418L26.8373 36.2588C26.8163 36.0963 26.8306 35.9313 26.8793 35.7749C26.928 35.6185 27.01 35.4745 27.1196 35.3528C27.2291 35.2311 27.3638 35.1345 27.5142 35.0697C27.6646 35.0048 27.8272 34.9733 27.991 34.9772H36.6548C36.9972 34.9772 37.3255 35.113 37.5678 35.3548C37.8101 35.5966 37.9466 35.9247 37.9473 36.267V40.1335ZM37.9473 28.5312C37.9459 28.8733 37.8092 29.201 37.567 29.4426C37.3249 29.6842 36.9969 29.8203 36.6548 29.821H27.4396C27.0873 29.8141 26.7491 29.6809 26.4867 29.4457C26.2243 29.2105 26.055 28.889 26.0096 28.5395L25.4541 23.3667C25.4332 23.2042 25.4478 23.0392 25.4966 22.8828C25.5455 22.7264 25.6276 22.5825 25.7373 22.4608C25.847 22.3391 25.9817 22.2425 26.1321 22.1777C26.2826 22.1129 26.4453 22.0813 26.6091 22.0853H36.6562C36.9985 22.0852 37.3269 22.221 37.5692 22.4628C37.8115 22.7046 37.948 23.0327 37.9487 23.375V28.5312H37.9473ZM51.916 51.7426C51.8703 52.092 51.7009 52.4134 51.4386 52.6485C51.1762 52.8836 50.8382 53.0169 50.486 53.0241H44.4085C44.0665 53.0234 43.7387 52.8873 43.4968 52.6456C43.2549 52.404 43.1184 52.0763 43.1173 51.7344V47.8665C43.1181 47.5244 43.2544 47.1966 43.4964 46.9548C43.7384 46.7131 44.0664 46.5771 44.4085 46.5768H51.179C51.8885 46.5768 52.411 47.1529 52.334 47.8582L51.916 51.7426ZM53.1617 40.1404C53.1161 40.4897 52.9467 40.8111 52.6843 41.0462C52.4219 41.2814 52.084 41.4146 51.7317 41.4219H44.4085C44.0665 41.4212 43.7387 41.2851 43.4968 41.0434C43.2549 40.8017 43.1184 40.4741 43.1173 40.1321V36.2643C43.1181 35.9222 43.2544 35.5943 43.4964 35.3526C43.7384 35.1108 44.0664 34.9749 44.4085 34.9745H52.4247C53.1356 34.9745 53.6567 35.5506 53.5783 36.256L53.1617 40.1404ZM54.4075 28.5395C54.3618 28.8888 54.1924 29.2102 53.9301 29.4454C53.6677 29.6805 53.3297 29.8138 52.9775 29.821H44.4085C44.0665 29.8203 43.7387 29.6842 43.4968 29.4425C43.2549 29.2008 43.1184 28.8732 43.1173 28.5312V23.375C43.1181 23.0329 43.2544 22.7051 43.4964 22.4633C43.7384 22.2216 44.0664 22.0856 44.4085 22.0853H53.8093C54.5202 22.0853 55.0413 22.6614 54.9657 23.3667L54.4075 28.5395ZM64.3515 53.0241V53.0145L64.3405 53.0241H58.2685C58.2286 53.0241 58.1942 53.0049 58.1543 52.9994C58.1475 52.9526 58.1475 52.9059 58.1392 52.8564L58.0787 52.9829C58.0955 52.9873 58.1125 52.991 58.1296 52.9939C57.4957 52.921 57.042 52.3971 57.1148 51.7426L57.5301 47.8596C57.5763 47.5105 57.7458 47.1894 58.0081 46.9544C58.2703 46.7194 58.608 46.5859 58.9601 46.5781H65.9396C66.6505 46.5781 67.14 47.1501 67.0327 47.8527L66.4236 51.7495C66.3177 52.4508 65.6467 53.0241 64.9358 53.0241H64.3515Z" fill="white"/>
</svg>